HIERARCHY
ROOT hip
{
  OFFSET 33.4041 86.9017 150.126
  CHANNELS 6 Xposition Yposition Zposition Zrotation Xrotation Yrotation
  JOINT abdomen
  {
    OFFSET 0 20.6881 -0.73152
    CHANNELS 3 Zrotation Xrotation Yrotation
    JOINT chest
    {
      OFFSET 0 11.7043 -0.48768
      CHANNELS 3 Zrotation Xrotation Yrotation
      JOINT neck
      {
        OFFSET 0 22.1894 -2.19456
        CHANNELS 3 Zrotation Xrotation Yrotation
        JOINT head
        {
          OFFSET -0.24384 7.07133 1.2192
          CHANNELS 3 Zrotation Xrotation Yrotation
          JOINT leftEye
          {
            OFFSET 4.14528 8.04674 8.04672
            CHANNELS 3 Zrotation Xrotation Yrotation
            End Site
            {
              OFFSET 1 0 0
            }
          }
          JOINT rightEye
          {
            OFFSET -3.6576 8.04674 8.04672
            CHANNELS 3 Zrotation Xrotation Yrotation
            End Site
            {
              OFFSET 1 0 0
            }
          }
        }
      }
      JOINT rCollar
      {
        OFFSET -2.68224 19.2634 -4.8768
        CHANNELS 3 Zrotation Xrotation Yrotation
        JOINT rShldr
        {
          OFFSET -8.77824 -1.95073 1.46304
          CHANNELS 3 Zrotation Xrotation Yrotation
          JOINT rForeArm
          {
            OFFSET -28.1742 -1.7115 0.48768
            CHANNELS 3 Zrotation Xrotation Yrotation
            JOINT rHand
            {
              OFFSET -22.5879 0.773209 7.07136
              CHANNELS 3 Zrotation Xrotation Yrotation
              JOINT rThumb1
              {
                OFFSET -1.2192 -0.487915 3.41376
                CHANNELS 3 Zrotation Xrotation Yrotation
                JOINT rThumb2
                {
                  OFFSET -3.37035 -0.52449 3.41376
                  CHANNELS 3 Zrotation Xrotation Yrotation
                  End Site
                  {
                    OFFSET -1.78271 -1.18214 1.43049
                  }
                }
              }
              JOINT rIndex1
              {
                OFFSET -7.75947 0.938293 5.60832
                CHANNELS 3 Zrotation Xrotation Yrotation
                JOINT rIndex2
                {
                  OFFSET -2.54057 -0.884171 1.56538
                  CHANNELS 3 Zrotation Xrotation Yrotation
                  End Site
                  {
                    OFFSET -1.62519 -0.234802 1.16502
                  }
                }
              }
              JOINT rMid1
              {
                OFFSET -8.24714 1.18213 3.41376
                CHANNELS 3 Zrotation Xrotation Yrotation
                JOINT rMid2
                {
                  OFFSET -3.10165 -0.590103 1.0647
                  CHANNELS 3 Zrotation Xrotation Yrotation
                  End Site
                  {
                    OFFSET -2.48547 -0.328903 0.83742
                  }
                }
              }
              JOINT rRing1
              {
                OFFSET -8.82822 0.546677 1.51678
                CHANNELS 3 Zrotation Xrotation Yrotation
                JOINT rRing2
                {
                  OFFSET -2.60934 -0.819778 -0.0198488
                  CHANNELS 3 Zrotation Xrotation Yrotation
                  End Site
                  {
                    OFFSET -2.33842 -0.294052 0.168128
                  }
                }
              }
              JOINT rPinky1
              {
                OFFSET -8.27202 -0.0477905 -0.4584
                CHANNELS 3 Zrotation Xrotation Yrotation
                JOINT rPinky2
                {
                  OFFSET -1.82734 -0.647385 -0.700984
                  CHANNELS 3 Zrotation Xrotation Yrotation
                  End Site
                  {
                    OFFSET -1.69225 -0.51767 -0.607171
                  }
                }
              }
            }
          }
        }
      }
      JOINT lCollar
      {
        OFFSET 2.68224 19.2634 -4.8768
        CHANNELS 3 Zrotation Xrotation Yrotation
        JOINT lShldr
        {
          OFFSET 8.77824 -1.95073 1.46304
          CHANNELS 3 Zrotation Xrotation Yrotation
          JOINT lForeArm
          {
            OFFSET 28.1742 -1.7115 0.48768
            CHANNELS 3 Zrotation Xrotation Yrotation
            JOINT lHand
            {
              OFFSET 22.5879 0.773209 7.07136
              CHANNELS 3 Zrotation Xrotation Yrotation
              JOINT lThumb1
              {
                OFFSET 1.2192 -0.487915 3.41376
                CHANNELS 3 Zrotation Xrotation Yrotation
                JOINT lThumb2
                {
                  OFFSET 3.37035 -0.52449 3.41376
                  CHANNELS 3 Zrotation Xrotation Yrotation
                  End Site
                  {
                    OFFSET 1.78271 -1.18214 1.43049
                  }
                }
              }
              JOINT lIndex1
              {
                OFFSET 7.75947 0.938293 5.60832
                CHANNELS 3 Zrotation Xrotation Yrotation
                JOINT lIndex2
                {
                  OFFSET 2.54057 -0.884171 1.56538
                  CHANNELS 3 Zrotation Xrotation Yrotation
                  End Site
                  {
                    OFFSET 1.62519 -0.234802 1.16502
                  }
                }
              }
              JOINT lMid1
              {
                OFFSET 8.24714 1.18213 3.41376
                CHANNELS 3 Zrotation Xrotation Yrotation
                JOINT lMid2
                {
                  OFFSET 3.10165 -0.590103 1.0647
                  CHANNELS 3 Zrotation Xrotation Yrotation
                  End Site
                  {
                    OFFSET 2.48547 -0.328903 0.83742
                  }
                }
              }
              JOINT lRing1
              {
                OFFSET 8.82822 0.546677 1.51678
                CHANNELS 3 Zrotation Xrotation Yrotation
                JOINT lRing2
                {
                  OFFSET 2.60934 -0.819778 -0.0198488
                  CHANNELS 3 Zrotation Xrotation Yrotation
                  End Site
                  {
                    OFFSET 2.33842 -0.294052 0.168128
                  }
                }
              }
              JOINT lPinky1
              {
                OFFSET 8.27202 -0.0477905 -0.4584
                CHANNELS 3 Zrotation Xrotation Yrotation
                JOINT lPinky2
                {
                  OFFSET 1.82734 -0.647385 -0.700984
                  CHANNELS 3 Zrotation Xrotation Yrotation
                  End Site
                  {
                    OFFSET 1.69225 -0.51767 -0.607171
                  }
                }
              }
            }
          }
        }
      }
    }
  }
  JOINT rButtock
  {
    OFFSET -8.77824 4.35084 1.2192
    CHANNELS 3 Zrotation Xrotation Yrotation
    JOINT rThigh
    {
      OFFSET 0 -1.70687 -2.19456
      CHANNELS 3 Zrotation Xrotation Yrotation
      JOINT rShin
      {
        OFFSET 0 -36.8199 0.73152
        CHANNELS 3 Zrotation Xrotation Yrotation
        JOINT rFoot
        {
          OFFSET 0.73152 -45.1104 -5.12064
          CHANNELS 3 Zrotation Xrotation Yrotation
          End Site
          {
            OFFSET -1.1221 -3.69964 12.103
          }
        }
      }
    }
  }
  JOINT lButtock
  {
    OFFSET 8.77824 4.35084 1.2192
    CHANNELS 3 Zrotation Xrotation Yrotation
    JOINT lThigh
    {
      OFFSET 0 -1.70687 -2.19456
      CHANNELS 3 Zrotation Xrotation Yrotation
      JOINT lShin
      {
        OFFSET 0 -36.8199 0.73152
        CHANNELS 3 Zrotation Xrotation Yrotation
        JOINT lFoot
        {
          OFFSET -0.73152 -45.1104 -5.12064
          CHANNELS 3 Zrotation Xrotation Yrotation
          End Site
          {
            OFFSET 1.1221 -3.69964 12.103
          }
        }
      }
    }
  }
}
MOTION
Frames:	6
Frame Time:	0.00833333
57.0597 85.5069 -80.9118 -1.70019 0.00694079 0.0323278 2.23578 -0.000461034 0.0604486 0.615859 0.0089706 0.106601 3.45579e-014 -1.59028e-015 -1.73937e-016 1.03719e-013 -6.36111e-015 -5.97907e-016 -0 0 0 -0 0 0 1.73919e-014 -1.77043e-016 1.98785e-016 3.65907e-013 -3.6154e-015 -3.97569e-016 6.29725e-012 -2.01091e-012 -1.11319e-013 7.21472e-011 1.22019e-012 -2.92611e-013 1.70186e-010 -1.71748e-012 -8.81014e-013 2.93908e-010 -2.96428e-012 -1.52985e-012 1.7019e-010 -1.71591e-012 -8.96916e-013 7.73091 5.47488 0.417314 1.70186e-010 -1.7174e-012 -8.81014e-013 2.90554 0.965183 0.102902 1.70191e-010 -1.7176e-012 -8.79423e-013 10.2786 0.731801 0.0259123 1.70173e-010 -1.71392e-012 -8.74653e-013 2.22167 -0.733487 -0.20892 1.72972e-014 -1.76266e-016 -3.47873e-016 3.62658e-013 -3.60918e-015 -1.59028e-015 6.31136e-012 1.75726e-012 -8.5875e-014 7.2165e-011 -2.56107e-012 -2.98972e-013 1.70247e-010 -1.74401e-012 -8.74653e-013 2.94015e-010 -3.01835e-012 -1.50758e-012 1.70244e-010 -1.74294e-012 -8.5875e-013 -7.73091 5.47488 -0.417314 1.70247e-010 -1.74434e-012 -8.74653e-013 -2.90554 0.965183 -0.102902 1.70242e-010 -1.74424e-012 -8.72267e-013 -10.2786 0.731801 -0.0259123 1.70253e-010 -1.74175e-012 -8.84194e-013 -2.22167 -0.733487 0.20892 -2.03217e-016 0 -3.88251e-019 2.20874 -7.80138 -0.224035 0.00523622 8.55911 0.135994 -0.545983 -0.766324 0.0459369 2.03217e-016 0 3.88251e-019 1.18686 -1.92859 -0.00258996 0.0090693 -2.07858 0.0747891 0.51064 3.99848 -0.140112 
57.5494 85.1893 -85.3465 -2.08155 0.98056 0.375609 2.46383 -4.76265 -0.211572 0.21541 -0.190222 0.0518407 -0.35068 3.35103 -0.878447 1.32701 -3.40714 -1.59541 -0 0 0 -0 0 0 2.58953e-014 -1.34473e-014 -1.10135e-014 -10.0639 -21.1112 6.48213 -2.73495 -1.04435 4.46176 0.00720224 1.88267 0.264076 -1.12443e-010 -1.38701e-010 -1.39748e-010 -1.95435e-010 -2.40311e-010 -2.40346e-010 -1.12438e-010 -1.387e-010 -1.39768e-010 7.73091 5.47488 0.417314 -1.12443e-010 -1.38701e-010 -1.39748e-010 2.90554 0.965183 0.102902 -1.12436e-010 -1.38701e-010 -1.39746e-010 10.2786 0.731801 0.0259123 -1.12453e-010 -1.38698e-010 -1.39742e-010 2.22167 -0.733487 -0.20892 2.5837e-014 -1.34464e-014 -1.14934e-014 12.055 -19.5352 -8.31095 2.90849 -1.13717 -4.72338 -0.000240412 -0.387787 0.0544964 3.77873e-010 -1.43053e-010 2.4649e-010 6.53261e-010 -2.47291e-010 4.26303e-010 3.7787e-010 -1.43052e-010 2.46505e-010 -7.73091 5.47488 -0.417314 3.77873e-010 -1.43053e-010 2.46491e-010 -2.90554 0.965183 -0.102902 3.77866e-010 -1.43053e-010 2.46495e-010 -10.2786 0.731801 -0.0259123 3.77877e-010 -1.43051e-010 2.46485e-010 -2.22167 -0.733487 0.20892 -2.03217e-016 0 -3.88251e-019 1.99581 -7.11345 -0.0596094 0.0080546 10.0574 0.166809 -0.42708 -5.43055 -1.84002 2.03217e-016 0 3.88251e-019 2.51337 -4.88228 -0.793342 0.0273905 5.2898 -0.0182576 0.0940954 -1.60695 -2.7435 
57.5502 85.1845 -85.349 -2.49795 2.01038 0.738039 2.65551 -9.79801 -0.505874 -0.207433 -0.400088 -0.00630216 -0.615764 6.89071 -1.81772 2.5378 -6.99589 -3.30003 -0 0 0 -0 0 0 3.63758e-014 -2.79075e-014 -2.33479e-014 -13.9013 -42.4172 16.9607 -5.45014 -2.12737 9.18359 -0.00409493 3.87348 0.544289 -4.28914e-010 -3.02076e-010 -3.01989e-010 -7.43423e-010 -5.23366e-010 -5.19404e-010 -4.28909e-010 -3.02075e-010 -3.02015e-010 7.73091 5.47488 0.417314 -4.28914e-010 -3.02076e-010 -3.01989e-010 2.90554 0.965183 0.102902 -4.28905e-010 -3.02077e-010 -3.01988e-010 10.2786 0.731801 0.0259123 -4.28922e-010 -3.02074e-010 -3.01984e-010 2.22167 -0.733487 -0.20892 3.63569e-014 -2.79065e-014 -2.37579e-014 17.1989 -38.6686 -20.8087 5.77883 -2.31287 -9.72062 0.000360546 -0.818383 0.115018 6.16361e-010 -3.01115e-010 5.33543e-010 1.06589e-009 -5.20511e-010 9.22747e-010 6.16358e-010 -3.01115e-010 5.33557e-010 -7.73091 5.47488 -0.417314 6.16361e-010 -3.01115e-010 5.33544e-010 -2.90554 0.965183 -0.102902 6.16352e-010 -3.01115e-010 5.33549e-010 -10.2786 0.731801 -0.0259123 6.16364e-010 -3.01114e-010 5.33543e-010 -2.22167 -0.733487 0.20892 -2.03217e-016 0 -3.88251e-019 1.76705 -6.38507 0.114553 0.00921203 11.6391 0.19977 -0.639982 -10.3426 -3.88067 2.03217e-016 0 3.88251e-019 3.8276 -8.00218 -1.63784 0.0732251 13.0787 -0.119424 -0.903035 -7.50158 -5.54019 
57.5575 85.1814 -85.3501 -2.8793 2.92736 1.06339 2.78077 -14.2859 -0.777465 -0.586631 -0.588606 -0.0576845 -0.739814 10.0435 -2.67181 3.40478 -10.1895 -4.85453 -0 0 0 -0 0 0 4.2902e-014 -3.99878e-014 -3.34381e-014 -5.01296 -58.4282 36.4792 -7.72125 -3.05715 13.4025 -0.0306712 5.64754 0.795664 -6.77701e-010 -4.12668e-010 -4.17481e-010 -1.17412e-009 -7.15003e-010 -7.17979e-010 -6.77695e-010 -4.12668e-010 -4.17511e-010 7.73091 5.47488 0.417314 -6.777e-010 -4.12668e-010 -4.17481e-010 2.90554 0.965183 0.102902 -6.7769e-010 -4.12669e-010 -4.1748e-010 10.2786 0.731801 0.0259123 -6.77707e-010 -4.12668e-010 -4.17477e-010 2.22167 -0.733487 -0.20892 4.29168e-014 -3.99867e-014 -3.37845e-014 10.8091 -51.9639 -40.3046 8.16856 -3.3189 -14.1917 0.00149219 -1.16336 0.163519 7.93125e-010 -4.2567e-010 7.4122e-010 1.37175e-009 -7.35836e-010 1.28192e-009 7.93121e-010 -4.2567e-010 7.41233e-010 -7.73091 5.47488 -0.417314 7.93125e-010 -4.2567e-010 7.41222e-010 -2.90554 0.965183 -0.102902 7.93114e-010 -4.2567e-010 7.41228e-010 -10.2786 0.731801 -0.0259123 7.93126e-010 -4.25669e-010 7.41224e-010 -2.22167 -0.733487 0.20892 -2.03217e-016 0 -3.88251e-019 1.55805 -5.73742 0.267812 0.00871791 13.054 0.229716 -1.13558 -14.6956 -5.77672 2.03217e-016 0 3.88251e-019 4.91792 -10.7818 -2.40876 0.138772 20.0264 -0.217149 -2.29116 -12.6981 -8.14832 
57.5656 85.1796 -85.349 -3.14838 3.56266 1.29491 2.84024 -17.4061 -0.970998 -0.855914 -0.723753 -0.0921607 -0.73337 12.2383 -3.27818 3.81976 -12.4254 -5.96923 -0 0 0 -0 0 0 3.95421e-014 -4.61184e-014 -3.79182e-014 14.4068 -64.8209 62.1948 -9.22166 -3.67616 16.3477 -0.0584109 6.88015 0.971664 -7.57276e-010 -3.91304e-010 -4.16102e-010 -1.31159e-009 -6.78097e-010 -7.15348e-010 -7.5727e-010 -3.91304e-010 -4.16134e-010 7.73091 5.47488 0.417314 -7.57276e-010 -3.91304e-010 -4.16102e-010 2.90554 0.965183 0.102902 -7.57265e-010 -3.91305e-010 -4.16102e-010 10.2786 0.731801 0.0259123 -7.57281e-010 -3.91304e-010 -4.16099e-010 2.22167 -0.733487 -0.20892 3.95768e-014 -4.61173e-014 -3.82164e-014 -1.95105 -56.6851 -60.809 9.74637 -3.98864 -17.3267 0.00205494 -1.29428 0.18193 8.15578e-010 -4.66457e-010 7.50458e-010 1.41069e-009 -8.06426e-010 1.29793e-009 8.15575e-010 -4.66457e-010 7.50471e-010 -7.73091 5.47488 -0.417314 8.15579e-010 -4.66457e-010 7.50461e-010 -2.90554 0.965183 -0.102902 8.15567e-010 -4.66457e-010 7.50467e-010 -10.2786 0.731801 -0.0259123 8.15579e-010 -4.66456e-010 7.50465e-010 -2.22167 -0.733487 0.20892 -2.03217e-016 0 -3.88251e-019 1.40698 -5.2917 0.369764 0.00760726 14.052 0.251164 -1.66103 -17.7113 -7.15726 2.03217e-016 0 3.88251e-019 5.62435 -12.7177 -2.96562 0.200019 24.8712 -0.292727 -3.55388 -16.2679 -10.0722 
57.574 85.1788 -85.3614 -3.24996 3.80393 1.39495 2.85623 -18.6108 -1.03978 -0.973281 -0.789305 -0.103114 -0.634556 13.0952 -3.51438 3.76629 -13.3381 -6.42834 -0 0 0 -0 0 0 1.85026e-014 -4.47393e-014 -3.44623e-014 24.4864 -65.3897 74.4736 -9.79014 -3.91038 17.5003 -0.0709427 7.34141 1.03788 -5.86298e-010 -1.50861e-010 -2.37776e-010 -1.01484e-009 -2.61781e-010 -4.08038e-010 -5.86291e-010 -1.50861e-010 -2.37804e-010 7.73091 5.47488 0.417314 -5.86297e-010 -1.50861e-010 -2.37776e-010 2.90554 0.965183 0.102902 -5.86288e-010 -1.50862e-010 -2.37777e-010 10.2786 0.731801 0.0259123 -5.86302e-010 -1.50861e-010 -2.37774e-010 2.22167 -0.733487 -0.20892 1.85378e-014 -4.47383e-014 -3.47295e-014 -8.47151 -57.0712 -69.9576 10.3564 -4.2492 -18.5807 0.00120226 -1.10217 0.154915 5.96579e-010 -3.93502e-010 4.44085e-010 1.032e-009 -6.80551e-010 7.68116e-010 5.96575e-010 -3.93503e-010 4.44097e-010 -7.73091 5.47488 -0.417314 5.96579e-010 -3.93502e-010 4.44088e-010 -2.90554 0.965183 -0.102902 5.96568e-010 -3.93501e-010 4.44091e-010 -10.2786 0.731801 -0.0259123 5.96581e-010 -3.935e-010 4.44089e-010 -2.22167 -0.733487 0.20892 -2.03217e-016 0 -3.88251e-019 1.3401 -5.12604 0.399447 0.0070446 14.46 0.260092 -1.91002 -18.8954 -7.71141 2.03217e-016 0 3.88251e-019 5.87341 -13.4786 -3.20531 0.227945 26.773 -0.325943 -4.12172 -17.6504 -10.8672 
